<svg width="2002" height="1002" viewBox="0 0 2002 1002" fill="none" xmlns="http://www.w3.org/2000/svg">
<path d="M1 51H51M51 51H151M51 51V1M51 51V151M151 51H251M151 51V1M151 51V151M251 51H351M251 51V1M251 51V151M351 51H451M351 51V1M351 51V151M451 51H551M451 51V1M451 51V151M551 51H651M551 51V1M551 51V151M651 51H751M651 51V1M651 51V151M751 51H851M751 51V1M751 51V151M851 51H951M851 51V1M851 51V151M951 51H1001M951 51V1M951 51V151M51 151V251M51 151H1M51 151H151M51 251V351M51 251H1M51 251H151M51 351V451M51 351H1M51 351H151M51 451H1M51 451H151M51 451V551M151 151V251M151 151H251M151 251V351M151 251H251M151 351V451M151 351H251M151 451H251M151 451V551M251 151V251M251 151H351M251 251V351M251 251H351M251 351V451M251 351H351M251 451H351M251 451V551M351 151V251M351 151H451M351 251V351M351 251H451M351 351V451M351 351H451M351 451H451M351 451V551M451 151V251M451 151H551M451 251V351M451 251H551M451 351V451M451 351H551M451 451H551M451 451V551M551 151H651M551 151V251M651 151H751M651 151V251M751 151H851M751 151V251M851 151H951M851 151V251M951 151H1001M951 151V251M551 251H651M551 251V351M651 251H751M651 251V351M751 251H851M751 251V351M851 251H951M851 251V351M951 251H1001M951 251V351M551 351H651M551 351V451M651 351H751M651 351V451M751 351H851M751 351V451M851 351H951M851 351V451M951 351H1001M951 351V451M551 451H651M551 451V551M651 451H751M651 451V551M751 451H851M751 451V551M851 451H951M851 451V551M951 451H1001M951 451V551M1 551H51M51 551H151M51 551V651M151 551H251M151 551V651M251 551H351M251 551V651M351 551H451M351 551V651M451 551H551M451 551V651M551 551H651M551 551V651M651 551H751M651 551V651M751 551H851M751 551V651M851 551H951M851 551V651M951 551H1001M951 551V651M51 651V751M51 651H1M51 651H151M51 751V851M51 751H1M51 751H151M51 851V951M51 851H1M51 851H151M51 951V1001M51 951H1M51 951H151M151 651V751M151 651H251M151 751V851M151 751H251M151 851V951M151 851H251M151 951V1001M151 951H251M251 651V751M251 651H351M251 751V851M251 751H351M251 851V951M251 851H351M251 951V1001M251 951H351M351 651V751M351 651H451M351 751V851M351 751H451M351 851V951M351 851H451M351 951V1001M351 951H451M451 651V751M451 651H551M451 751V851M451 751H551M451 851V951M451 851H551M451 951V1001M451 951H551M551 651H651M551 651V751M651 651H751M651 651V751M751 651H851M751 651V751M851 651H951M851 651V751M951 651H1001M951 651V751M551 751H651M551 751V851M651 751H751M651 751V851M751 751H851M751 751V851M851 751H951M851 751V851M951 751H1001M951 751V851M551 851H651M551 851V951M651 851H751M651 851V951M751 851H851M751 851V951M851 851H951M851 851V951M951 851H1001M951 851V951M551 951H651M551 951V1001M651 951H751M651 951V1001M751 951H851M751 951V1001M851 951H951M851 951V1001M951 951H1001M951 951V1001" stroke="url(#paint0_radial_1721_3239)" stroke-linecap="round"/>
<path d="M1001 51H1051M1051 51H1151M1051 51V1M1051 51V151M1151 51H1251M1151 51V1M1151 51V151M1251 51H1351M1251 51V1M1251 51V151M1351 51H1451M1351 51V1M1351 51V151M1451 51H1551M1451 51V1M1451 51V151M1551 51H1651M1551 51V1M1551 51V151M1651 51H1751M1651 51V1M1651 51V151M1751 51H1851M1751 51V1M1751 51V151M1851 51H1951M1851 51V1M1851 51V151M1951 51H2001M1951 51V1M1951 51V151M1051 151V251M1051 151H1001M1051 151H1151M1051 251V351M1051 251H1001M1051 251H1151M1051 351V451M1051 351H1001M1051 351H1151M1051 451H1001M1051 451H1151M1051 451V551M1151 151V251M1151 151H1251M1151 251V351M1151 251H1251M1151 351V451M1151 351H1251M1151 451H1251M1151 451V551M1251 151V251M1251 151H1351M1251 251V351M1251 251H1351M1251 351V451M1251 351H1351M1251 451H1351M1251 451V551M1351 151V251M1351 151H1451M1351 251V351M1351 251H1451M1351 351V451M1351 351H1451M1351 451H1451M1351 451V551M1451 151V251M1451 151H1551M1451 251V351M1451 251H1551M1451 351V451M1451 351H1551M1451 451H1551M1451 451V551M1551 151H1651M1551 151V251M1651 151H1751M1651 151V251M1751 151H1851M1751 151V251M1851 151H1951M1851 151V251M1951 151H2001M1951 151V251M1551 251H1651M1551 251V351M1651 251H1751M1651 251V351M1751 251H1851M1751 251V351M1851 251H1951M1851 251V351M1951 251H2001M1951 251V351M1551 351H1651M1551 351V451M1651 351H1751M1651 351V451M1751 351H1851M1751 351V451M1851 351H1951M1851 351V451M1951 351H2001M1951 351V451M1551 451H1651M1551 451V551M1651 451H1751M1651 451V551M1751 451H1851M1751 451V551M1851 451H1951M1851 451V551M1951 451H2001M1951 451V551M1001 551H1051M1051 551H1151M1051 551V651M1151 551H1251M1151 551V651M1251 551H1351M1251 551V651M1351 551H1451M1351 551V651M1451 551H1551M1451 551V651M1551 551H1651M1551 551V651M1651 551H1751M1651 551V651M1751 551H1851M1751 551V651M1851 551H1951M1851 551V651M1951 551H2001M1951 551V651M1051 651V751M1051 651H1001M1051 651H1151M1051 751V851M1051 751H1001M1051 751H1151M1051 851V951M1051 851H1001M1051 851H1151M1051 951V1001M1051 951H1001M1051 951H1151M1151 651V751M1151 651H1251M1151 751V851M1151 751H1251M1151 851V951M1151 851H1251M1151 951V1001M1151 951H1251M1251 651V751M1251 651H1351M1251 751V851M1251 751H1351M1251 851V951M1251 851H1351M1251 951V1001M1251 951H1351M1351 651V751M1351 651H1451M1351 751V851M1351 751H1451M1351 851V951M1351 851H1451M1351 951V1001M1351 951H1451M1451 651V751M1451 651H1551M1451 751V851M1451 751H1551M1451 851V951M1451 851H1551M1451 951V1001M1451 951H1551M1551 651H1651M1551 651V751M1651 651H1751M1651 651V751M1751 651H1851M1751 651V751M1851 651H1951M1851 651V751M1951 651H2001M1951 651V751M1551 751H1651M1551 751V851M1651 751H1751M1651 751V851M1751 751H1851M1751 751V851M1851 751H1951M1851 751V851M1951 751H2001M1951 751V851M1551 851H1651M1551 851V951M1651 851H1751M1651 851V951M1751 851H1851M1751 851V951M1851 851H1951M1851 851V951M1951 851H2001M1951 851V951M1551 951H1651M1551 951V1001M1651 951H1751M1651 951V1001M1751 951H1851M1751 951V1001M1851 951H1951M1851 951V1001M1951 951H2001M1951 951V1001" stroke="url(#paint1_radial_1721_3239)" stroke-linecap="round"/>
<defs>
<radialGradient id="paint0_radial_1721_3239" cx="0" cy="0" r="1" gradientUnits="userSpaceOnUse" gradientTransform="translate(501 501) rotate(90) scale(500)">
<stop stop-color="#0169FF" stop-opacity="0.16"/>
<stop offset="1" stop-color="#0169FF" stop-opacity="0"/>
</radialGradient>
<radialGradient id="paint1_radial_1721_3239" cx="0" cy="0" r="1" gradientUnits="userSpaceOnUse" gradientTransform="translate(1501 501) rotate(90) scale(500)">
<stop stop-color="#0169FF" stop-opacity="0.16"/>
<stop offset="1" stop-color="#0169FF" stop-opacity="0"/>
</radialGradient>
</defs>
</svg>
