<svg width="1440" height="998" viewBox="0 0 1440 998" fill="none" xmlns="http://www.w3.org/2000/svg">
<path d="M-280 48H-230M-230 48H-130M-230 48V-2M-230 48V148M-130 48H-30M-130 48V-2M-130 48V148M-30 48H70M-30 48V-2M-30 48V148M70 48H170M70 48V-2M70 48V148M170 48H270M170 48V-2M170 48V148M270 48H370M270 48V-2M270 48V148M370 48H470M370 48V-2M370 48V148M470 48H570M470 48V-2M470 48V148M570 48H670M570 48V-2M570 48V148M670 48H720M670 48V-2M670 48V148M-230 148V248M-230 148H-280M-230 148H-130M-230 248V348M-230 248H-280M-230 248H-130M-230 348V448M-230 348H-280M-230 348H-130M-230 448H-280M-230 448H-130M-230 448V548M-130 148V248M-130 148H-30M-130 248V348M-130 248H-30M-130 348V448M-130 348H-30M-130 448H-30M-130 448V548M-30 148V248M-30 148H70M-30 248V348M-30 248H70M-30 348V448M-30 348H70M-30 448H70M-30 448V548M70 148V248M70 148H170M70 248V348M70 248H170M70 348V448M70 348H170M70 448H170M70 448V548M170 148V248M170 148H270M170 248V348M170 248H270M170 348V448M170 348H270M170 448H270M170 448V548M270 148H370M270 148V248M370 148H470M370 148V248M470 148H570M470 148V248M570 148H670M570 148V248M670 148H720M670 148V248M270 248H370M270 248V348M370 248H470M370 248V348M470 248H570M470 248V348M570 248H670M570 248V348M670 248H720M670 248V348M270 348H370M270 348V448M370 348H470M370 348V448M470 348H570M470 348V448M570 348H670M570 348V448M670 348H720M670 348V448M270 448H370M270 448V548M370 448H470M370 448V548M470 448H570M470 448V548M570 448H670M570 448V548M670 448H720M670 448V548M-280 548H-230M-230 548H-130M-230 548V648M-130 548H-30M-130 548V648M-30 548H70M-30 548V648M70 548H170M70 548V648M170 548H270M170 548V648M270 548H370M270 548V648M370 548H470M370 548V648M470 548H570M470 548V648M570 548H670M570 548V648M670 548H720M670 548V648M-230 648V748M-230 648H-280M-230 648H-130M-230 748V848M-230 748H-280M-230 748H-130M-230 848V948M-230 848H-280M-230 848H-130M-230 948V998M-230 948H-280M-230 948H-130M-130 648V748M-130 648H-30M-130 748V848M-130 748H-30M-130 848V948M-130 848H-30M-130 948V998M-130 948H-30M-30 648V748M-30 648H70M-30 748V848M-30 748H70M-30 848V948M-30 848H70M-30 948V998M-30 948H70M70 648V748M70 648H170M70 748V848M70 748H170M70 848V948M70 848H170M70 948V998M70 948H170M170 648V748M170 648H270M170 748V848M170 748H270M170 848V948M170 848H270M170 948V998M170 948H270M270 648H370M270 648V748M370 648H470M370 648V748M470 648H570M470 648V748M570 648H670M570 648V748M670 648H720M670 648V748M270 748H370M270 748V848M370 748H470M370 748V848M470 748H570M470 748V848M570 748H670M570 748V848M670 748H720M670 748V848M270 848H370M270 848V948M370 848H470M370 848V948M470 848H570M470 848V948M570 848H670M570 848V948M670 848H720M670 848V948M270 948H370M270 948V998M370 948H470M370 948V998M470 948H570M470 948V998M570 948H670M570 948V998M670 948H720M670 948V998" stroke="url(#paint0_radial_75_7395)" stroke-linecap="round"/>
<path d="M720 48H770M770 48H870M770 48V-2M770 48V148M870 48H970M870 48V-2M870 48V148M970 48H1070M970 48V-2M970 48V148M1070 48H1170M1070 48V-2M1070 48V148M1170 48H1270M1170 48V-2M1170 48V148M1270 48H1370M1270 48V-2M1270 48V148M1370 48H1470M1370 48V-2M1370 48V148M1470 48H1570M1470 48V-2M1470 48V148M1570 48H1670M1570 48V-2M1570 48V148M1670 48H1720M1670 48V-2M1670 48V148M770 148V248M770 148H720M770 148H870M770 248V348M770 248H720M770 248H870M770 348V448M770 348H720M770 348H870M770 448H720M770 448H870M770 448V548M870 148V248M870 148H970M870 248V348M870 248H970M870 348V448M870 348H970M870 448H970M870 448V548M970 148V248M970 148H1070M970 248V348M970 248H1070M970 348V448M970 348H1070M970 448H1070M970 448V548M1070 148V248M1070 148H1170M1070 248V348M1070 248H1170M1070 348V448M1070 348H1170M1070 448H1170M1070 448V548M1170 148V248M1170 148H1270M1170 248V348M1170 248H1270M1170 348V448M1170 348H1270M1170 448H1270M1170 448V548M1270 148H1370M1270 148V248M1370 148H1470M1370 148V248M1470 148H1570M1470 148V248M1570 148H1670M1570 148V248M1670 148H1720M1670 148V248M1270 248H1370M1270 248V348M1370 248H1470M1370 248V348M1470 248H1570M1470 248V348M1570 248H1670M1570 248V348M1670 248H1720M1670 248V348M1270 348H1370M1270 348V448M1370 348H1470M1370 348V448M1470 348H1570M1470 348V448M1570 348H1670M1570 348V448M1670 348H1720M1670 348V448M1270 448H1370M1270 448V548M1370 448H1470M1370 448V548M1470 448H1570M1470 448V548M1570 448H1670M1570 448V548M1670 448H1720M1670 448V548M720 548H770M770 548H870M770 548V648M870 548H970M870 548V648M970 548H1070M970 548V648M1070 548H1170M1070 548V648M1170 548H1270M1170 548V648M1270 548H1370M1270 548V648M1370 548H1470M1370 548V648M1470 548H1570M1470 548V648M1570 548H1670M1570 548V648M1670 548H1720M1670 548V648M770 648V748M770 648H720M770 648H870M770 748V848M770 748H720M770 748H870M770 848V948M770 848H720M770 848H870M770 948V998M770 948H720M770 948H870M870 648V748M870 648H970M870 748V848M870 748H970M870 848V948M870 848H970M870 948V998M870 948H970M970 648V748M970 648H1070M970 748V848M970 748H1070M970 848V948M970 848H1070M970 948V998M970 948H1070M1070 648V748M1070 648H1170M1070 748V848M1070 748H1170M1070 848V948M1070 848H1170M1070 948V998M1070 948H1170M1170 648V748M1170 648H1270M1170 748V848M1170 748H1270M1170 848V948M1170 848H1270M1170 948V998M1170 948H1270M1270 648H1370M1270 648V748M1370 648H1470M1370 648V748M1470 648H1570M1470 648V748M1570 648H1670M1570 648V748M1670 648H1720M1670 648V748M1270 748H1370M1270 748V848M1370 748H1470M1370 748V848M1470 748H1570M1470 748V848M1570 748H1670M1570 748V848M1670 748H1720M1670 748V848M1270 848H1370M1270 848V948M1370 848H1470M1370 848V948M1470 848H1570M1470 848V948M1570 848H1670M1570 848V948M1670 848H1720M1670 848V948M1270 948H1370M1270 948V998M1370 948H1470M1370 948V998M1470 948H1570M1470 948V998M1570 948H1670M1570 948V998M1670 948H1720M1670 948V998" stroke="url(#paint1_radial_75_7395)" stroke-linecap="round"/>
<defs>
<radialGradient id="paint0_radial_75_7395" cx="0" cy="0" r="1" gradientUnits="userSpaceOnUse" gradientTransform="translate(220 498) rotate(90) scale(500)">
<stop stop-color="#0169FF" stop-opacity="0.12"/>
<stop offset="1" stop-color="#0169FF" stop-opacity="0"/>
</radialGradient>
<radialGradient id="paint1_radial_75_7395" cx="0" cy="0" r="1" gradientUnits="userSpaceOnUse" gradientTransform="translate(1220 498) rotate(90) scale(500)">
<stop stop-color="#0169FF" stop-opacity="0.12"/>
<stop offset="1" stop-color="#0169FF" stop-opacity="0"/>
</radialGradient>
</defs>
</svg>
