<svg width="1440" height="980" viewBox="0 0 1440 980" fill="none" xmlns="http://www.w3.org/2000/svg">
<path opacity="0.6" d="M-280 50H-230M-230 50H-130M-230 50V0M-230 50V150M-130 50H-30M-130 50V0M-130 50V150M-30 50H70M-30 50V0M-30 50V150M70 50H170M70 50V0M70 50V150M170 50H270M170 50V0M170 50V150M270 50H370M270 50V0M270 50V150M370 50H470M370 50V0M370 50V150M470 50H570M470 50V0M470 50V150M570 50H670M570 50V0M570 50V150M670 50H720M670 50V0M670 50V150M-230 150V250M-230 150H-280M-230 150H-130M-230 250V350M-230 250H-280M-230 250H-130M-230 350V450M-230 350H-280M-230 350H-130M-230 450H-280M-230 450H-130M-230 450V550M-130 150V250M-130 150H-30M-130 250V350M-130 250H-30M-130 350V450M-130 350H-30M-130 450H-30M-130 450V550M-30 150V250M-30 150H70M-30 250V350M-30 250H70M-30 350V450M-30 350H70M-30 450H70M-30 450V550M70 150V250M70 150H170M70 250V350M70 250H170M70 350V450M70 350H170M70 450H170M70 450V550M170 150V250M170 150H270M170 250V350M170 250H270M170 350V450M170 350H270M170 450H270M170 450V550M270 150H370M270 150V250M370 150H470M370 150V250M470 150H570M470 150V250M570 150H670M570 150V250M670 150H720M670 150V250M270 250H370M270 250V350M370 250H470M370 250V350M470 250H570M470 250V350M570 250H670M570 250V350M670 250H720M670 250V350M270 350H370M270 350V450M370 350H470M370 350V450M470 350H570M470 350V450M570 350H670M570 350V450M670 350H720M670 350V450M270 450H370M270 450V550M370 450H470M370 450V550M470 450H570M470 450V550M570 450H670M570 450V550M670 450H720M670 450V550M-280 550H-230M-230 550H-130M-230 550V650M-130 550H-30M-130 550V650M-30 550H70M-30 550V650M70 550H170M70 550V650M170 550H270M170 550V650M270 550H370M270 550V650M370 550H470M370 550V650M470 550H570M470 550V650M570 550H670M570 550V650M670 550H720M670 550V650M-230 650V750M-230 650H-280M-230 650H-130M-230 750V850M-230 750H-280M-230 750H-130M-230 850V950M-230 850H-280M-230 850H-130M-230 950V1000M-230 950H-280M-230 950H-130M-130 650V750M-130 650H-30M-130 750V850M-130 750H-30M-130 850V950M-130 850H-30M-130 950V1000M-130 950H-30M-30 650V750M-30 650H70M-30 750V850M-30 750H70M-30 850V950M-30 850H70M-30 950V1000M-30 950H70M70 650V750M70 650H170M70 750V850M70 750H170M70 850V950M70 850H170M70 950V1000M70 950H170M170 650V750M170 650H270M170 750V850M170 750H270M170 850V950M170 850H270M170 950V1000M170 950H270M270 650H370M270 650V750M370 650H470M370 650V750M470 650H570M470 650V750M570 650H670M570 650V750M670 650H720M670 650V750M270 750H370M270 750V850M370 750H470M370 750V850M470 750H570M470 750V850M570 750H670M570 750V850M670 750H720M670 750V850M270 850H370M270 850V950M370 850H470M370 850V950M470 850H570M470 850V950M570 850H670M570 850V950M670 850H720M670 850V950M270 950H370M270 950V1000M370 950H470M370 950V1000M470 950H570M470 950V1000M570 950H670M570 950V1000M670 950H720M670 950V1000" stroke="#F4F4F4" stroke-linecap="round"/>
<path opacity="0.6" d="M720 50H770M770 50H870M770 50V0M770 50V150M870 50H970M870 50V0M870 50V150M970 50H1070M970 50V0M970 50V150M1070 50H1170M1070 50V0M1070 50V150M1170 50H1270M1170 50V0M1170 50V150M1270 50H1370M1270 50V0M1270 50V150M1370 50H1470M1370 50V0M1370 50V150M1470 50H1570M1470 50V0M1470 50V150M1570 50H1670M1570 50V0M1570 50V150M1670 50H1720M1670 50V0M1670 50V150M770 150V250M770 150H720M770 150H870M770 250V350M770 250H720M770 250H870M770 350V450M770 350H720M770 350H870M770 450H720M770 450H870M770 450V550M870 150V250M870 150H970M870 250V350M870 250H970M870 350V450M870 350H970M870 450H970M870 450V550M970 150V250M970 150H1070M970 250V350M970 250H1070M970 350V450M970 350H1070M970 450H1070M970 450V550M1070 150V250M1070 150H1170M1070 250V350M1070 250H1170M1070 350V450M1070 350H1170M1070 450H1170M1070 450V550M1170 150V250M1170 150H1270M1170 250V350M1170 250H1270M1170 350V450M1170 350H1270M1170 450H1270M1170 450V550M1270 150H1370M1270 150V250M1370 150H1470M1370 150V250M1470 150H1570M1470 150V250M1570 150H1670M1570 150V250M1670 150H1720M1670 150V250M1270 250H1370M1270 250V350M1370 250H1470M1370 250V350M1470 250H1570M1470 250V350M1570 250H1670M1570 250V350M1670 250H1720M1670 250V350M1270 350H1370M1270 350V450M1370 350H1470M1370 350V450M1470 350H1570M1470 350V450M1570 350H1670M1570 350V450M1670 350H1720M1670 350V450M1270 450H1370M1270 450V550M1370 450H1470M1370 450V550M1470 450H1570M1470 450V550M1570 450H1670M1570 450V550M1670 450H1720M1670 450V550M720 550H770M770 550H870M770 550V650M870 550H970M870 550V650M970 550H1070M970 550V650M1070 550H1170M1070 550V650M1170 550H1270M1170 550V650M1270 550H1370M1270 550V650M1370 550H1470M1370 550V650M1470 550H1570M1470 550V650M1570 550H1670M1570 550V650M1670 550H1720M1670 550V650M770 650V750M770 650H720M770 650H870M770 750V850M770 750H720M770 750H870M770 850V950M770 850H720M770 850H870M770 950V1000M770 950H720M770 950H870M870 650V750M870 650H970M870 750V850M870 750H970M870 850V950M870 850H970M870 950V1000M870 950H970M970 650V750M970 650H1070M970 750V850M970 750H1070M970 850V950M970 850H1070M970 950V1000M970 950H1070M1070 650V750M1070 650H1170M1070 750V850M1070 750H1170M1070 850V950M1070 850H1170M1070 950V1000M1070 950H1170M1170 650V750M1170 650H1270M1170 750V850M1170 750H1270M1170 850V950M1170 850H1270M1170 950V1000M1170 950H1270M1270 650H1370M1270 650V750M1370 650H1470M1370 650V750M1470 650H1570M1470 650V750M1570 650H1670M1570 650V750M1670 650H1720M1670 650V750M1270 750H1370M1270 750V850M1370 750H1470M1370 750V850M1470 750H1570M1470 750V850M1570 750H1670M1570 750V850M1670 750H1720M1670 750V850M1270 850H1370M1270 850V950M1370 850H1470M1370 850V950M1470 850H1570M1470 850V950M1570 850H1670M1570 850V950M1670 850H1720M1670 850V950M1270 950H1370M1270 950V1000M1370 950H1470M1370 950V1000M1470 950H1570M1470 950V1000M1570 950H1670M1570 950V1000M1670 950H1720M1670 950V1000" stroke="#F4F4F4" stroke-linecap="round"/>
</svg>
