<svg width="22" height="24" viewBox="0 0 22 24" fill="none" xmlns="http://www.w3.org/2000/svg">
<path d="M19.7061 1.70672C17.6214 -0.198849 15.2617 -0.19625 13.4978 0.231339C11.7405 0.657239 9.89664 0.657239 8.13937 0.231339C6.37547 -0.19625 4.01567 -0.198849 1.93088 1.70672C-2.01918 5.31731 1.1594 11.767 2.11608 12.878C3.07277 13.9889 3.10357 15.4701 3.78251 18.4945C4.46145 21.5188 5.32547 24.3887 7.05363 23.9567C8.78179 23.5247 9.24473 21.4262 9.67674 18.6179C9.7065 18.4248 9.73744 18.2436 9.76941 18.0734C9.98905 16.9058 11.6479 16.9058 11.8676 18.0734C11.8996 18.2435 11.9306 18.4248 11.9604 18.6179C12.3924 21.4262 12.8553 23.5247 14.5835 23.9567C16.3116 24.3887 17.1757 21.5188 17.8546 18.4945C18.5336 15.4701 18.5644 13.9889 19.521 12.878C20.4777 11.767 23.6563 5.31731 19.7061 1.70672ZM7.64108 3.10944C7.59325 3.46425 7.26743 3.71353 6.91288 3.66726C6.7859 3.65153 3.96875 3.34052 3.17726 6.41604C3.10175 6.70925 2.83779 6.90407 2.54835 6.90407C2.49468 6.90407 2.44022 6.89744 2.38589 6.8834C2.03836 6.79399 1.82912 6.4397 1.91853 6.09217C2.7858 2.72214 5.67625 2.18993 7.08352 2.37877C7.43924 2.4266 7.68878 2.75372 7.64108 3.10944Z" fill="#1177FF"/>
</svg>
