<svg width="28" height="28" viewBox="0 0 28 28" fill="none" xmlns="http://www.w3.org/2000/svg">
<g clip-path="url(#clip0_75_7482)">
<path d="M28 14C28 6.26808 21.7319 0 14 0C6.26808 0 0 6.26808 0 14C0 20.5654 4.52032 26.0747 10.6182 27.5878V18.2784H7.73136V14H10.6182V12.1565C10.6182 7.39144 12.7747 5.1828 17.453 5.1828C18.34 5.1828 19.8705 5.35696 20.4966 5.53056V9.40856C20.1662 9.37384 19.5922 9.35648 18.8793 9.35648C16.5838 9.35648 15.6968 10.2262 15.6968 12.4869V14H20.2698L19.4841 18.2784H15.6968V27.8975C22.629 27.0603 28.0006 21.1579 28.0006 14H28Z" fill="#767A85"/>
<path d="M19.4832 18.2785L20.2689 14.0001H15.6959V12.4869C15.6959 10.2262 16.5829 9.35654 18.8784 9.35654C19.5913 9.35654 20.1653 9.3739 20.4957 9.40862V5.53062C19.8696 5.35646 18.3391 5.18286 17.4521 5.18286C12.7738 5.18286 10.6173 7.3915 10.6173 12.1565V14.0001H7.73047V18.2785H10.6173V27.5879C11.7003 27.8567 12.8332 28.0001 13.9991 28.0001C14.5731 28.0001 15.1393 27.9648 15.6953 27.8976V18.2785H19.4826H19.4832Z" fill="#0F1019"/>
</g>
<defs>
<clipPath id="clip0_75_7482">
<rect width="28" height="28" fill="white"/>
</clipPath>
</defs>
</svg>
