<svg width="24" height="24" viewBox="0 0 24 24" fill="none" xmlns="http://www.w3.org/2000/svg">
<path d="M5.00349 10.9997H16.1735L11.2935 6.11967C10.9035 5.72967 10.9035 5.08967 11.2935 4.69967C11.386 4.60697 11.4959 4.53342 11.6169 4.48324C11.7378 4.43306 11.8675 4.40723 11.9985 4.40723C12.1295 4.40723 12.2591 4.43306 12.3801 4.48324C12.5011 4.53342 12.611 4.60697 12.7035 4.69967L19.2935 11.2897C19.3862 11.3822 19.4597 11.4921 19.5099 11.613C19.5601 11.734 19.5859 11.8637 19.5859 11.9947C19.5859 12.1256 19.5601 12.2553 19.5099 12.3763C19.4597 12.4973 19.3862 12.6072 19.2935 12.6997L12.7035 19.2897C12.6109 19.3823 12.501 19.4557 12.38 19.5058C12.2591 19.5559 12.1294 19.5817 11.9985 19.5817C11.8676 19.5817 11.7379 19.5559 11.617 19.5058C11.496 19.4557 11.3861 19.3823 11.2935 19.2897C11.2009 19.1971 11.1275 19.0872 11.0774 18.9662C11.0273 18.8452 11.0015 18.7156 11.0015 18.5847C11.0015 18.4537 11.0273 18.3241 11.0774 18.2031C11.1275 18.0822 11.2009 17.9723 11.2935 17.8797L16.1735 12.9997H5.00349C4.45349 12.9997 4.00349 12.5497 4.00349 11.9997C4.00349 11.4497 4.45349 10.9997 5.00349 10.9997Z" fill="white"/>
</svg>
