<svg width="28" height="28" viewBox="0 0 28 28" fill="none" xmlns="http://www.w3.org/2000/svg">
<g clip-path="url(#clip0_75_7485)">
<path d="M27.4429 7.21623C27.2846 6.62055 26.9726 6.07689 26.5382 5.63966C26.1037 5.20244 25.5621 4.88698 24.9674 4.72487C22.7783 4.13623 14.0283 4.13623 14.0283 4.13623C14.0283 4.13623 5.27832 4.13623 3.08923 4.72487C2.49457 4.88698 1.95292 5.20244 1.51849 5.63966C1.08406 6.07689 0.772077 6.62055 0.613775 7.21623C0.0283204 9.41487 0.0283203 13.9999 0.0283203 13.9999C0.0283203 13.9999 0.0283204 18.5849 0.613775 20.7835C0.772077 21.3792 1.08406 21.9228 1.51849 22.3601C1.95292 22.7973 2.49457 23.1128 3.08923 23.2749C5.27832 23.8635 14.0283 23.8635 14.0283 23.8635C14.0283 23.8635 22.7783 23.8635 24.9674 23.2749C25.5621 23.1128 26.1037 22.7973 26.5382 22.3601C26.9726 21.9228 27.2846 21.3792 27.4429 20.7835C28.0283 18.5849 28.0283 13.9999 28.0283 13.9999C28.0283 13.9999 28.0283 9.41487 27.4429 7.21623Z" fill="#767A85"/>
<path d="M11.1641 18.1635V9.83667L18.4822 14.0001L11.1641 18.1635Z" fill="#0F1019"/>
</g>
<defs>
<clipPath id="clip0_75_7485">
<rect width="28" height="28" fill="white"/>
</clipPath>
</defs>
</svg>
